<?xml version="1.0" encoding="UTF-8"?>
<svg width="400px" height="400px" viewBox="0 0 400 400" version="1.1" xmlns="http://www.w3.org/2000/svg" xmlns:xlink="http://www.w3.org/1999/xlink">
    <title>Artboard</title>
    <g id="Artboard" stroke="none" stroke-width="1" fill="none" fill-rule="evenodd">
        <g id="blog-images-logo-ipsum" transform="translate(30.000000, 119.000000)" fill="#000000" fill-rule="nonzero">
            <polygon id="Path" points="0 97.7369632 10.9677419 97.7369632 10.9677419 147.602761 0 147.602761"></polygon>
            <path d="M16.9509544,130.681687 C16.9373556,123.418204 21.3012625,116.862363 28.0063452,114.073318 C34.7114278,111.284273 42.4360699,112.811763 47.5757212,117.943015 C52.7153728,123.074267 54.2569744,130.797877 51.4811683,137.509777 C48.7053621,144.221677 42.1592785,148.598907 34.8975162,148.59892 C30.1271557,148.653362 25.5358121,146.784241 22.1592782,143.413225 C18.7827443,140.04221 16.9054671,135.453281 16.9509544,130.681687 L16.9509544,130.681687 Z M42.6945242,130.681687 C42.5838447,126.402496 39.0455265,123.012325 34.7665536,123.085657 C30.4875807,123.158988 27.0674484,126.66841 27.103391,130.948882 C27.1393336,135.229354 30.6179155,138.680821 34.8975162,138.682253 C37.0185722,138.741638 39.0677611,137.910849 40.5488871,136.391055 C42.0300128,134.871261 42.8080215,132.801043 42.6945242,130.681687 L42.6945242,130.681687 Z" id="Shape"></path>
            <path d="M93.7243402,113.659383 L93.7243402,146.161416 C93.7243402,157.662657 84.8449157,162.514213 75.8649695,162.514213 C69.4274725,162.998953 63.2610811,159.805147 59.8820054,154.236034 L68.5268791,149.180916 C69.9305237,152.045671 72.9184035,153.753288 76.066013,153.48964 C78.1176932,153.835852 80.2118394,153.197837 81.7341625,151.762749 C83.2564852,150.32766 84.0343935,148.2582 83.8396978,146.161416 L83.8396978,143.006208 C81.4426369,145.991935 77.7839997,147.642564 73.9885628,147.450641 C64.5137213,147.450641 56.8328446,139.673555 56.8328446,130.080035 C56.8328446,120.486514 64.5137213,112.709428 73.9885628,112.709428 C77.7809502,112.533941 81.4326065,114.18142 83.8396978,117.153861 L83.8396978,113.761164 L93.7243402,113.659383 Z M83.8396978,130.080035 C83.9764463,126.704389 82.0735163,123.583321 79.0318155,122.194442 C75.9901151,120.805564 72.420062,121.4276 70.0118338,123.766059 C67.6036055,126.104518 66.8404927,129.690111 68.0837773,132.825302 C69.327062,135.960495 72.3272379,138.016106 75.6639259,138.018944 C77.8166938,138.173198 79.9334668,137.39832 81.4910951,135.885818 C83.0487234,134.373316 83.9018749,132.264311 83.8396978,130.080035 Z" id="Shape"></path>
            <path d="M99.7075527,130.681687 C99.6939539,123.418204 104.057861,116.862363 110.762944,114.073318 C117.468026,111.284273 125.192668,112.811763 130.332319,117.943015 C135.471971,123.074267 137.013573,130.797877 134.237767,137.509777 C131.46196,144.221677 124.915877,148.598907 117.654114,148.59892 C112.883754,148.653362 108.29241,146.784241 104.915876,143.413225 C101.539343,140.04221 99.6620652,135.453281 99.7075527,130.681687 Z M125.451122,130.681687 C125.340443,126.402496 121.802125,123.012325 117.523152,123.085657 C113.244179,123.158988 109.824047,126.66841 109.859989,130.948882 C109.895932,135.229354 113.374514,138.680821 117.654114,138.682253 C119.76363,138.722603 121.794867,137.883449 123.261075,136.36588 C124.727283,134.848311 125.496323,132.789095 125.383907,130.681687 L125.451122,130.681687 Z" id="Shape"></path>
            <path d="M140.58651,103.953111 C140.58651,100.520027 143.488125,97.7369632 147.067449,97.7369632 C150.646772,97.7369632 153.548387,100.520027 153.548387,103.953111 C153.548387,107.386194 150.646772,110.169258 147.067449,110.169258 C143.496218,110.150591 140.605972,107.378432 140.58651,103.953111 Z M141.690406,113.174868 L152.373272,113.174868 L152.373272,147.602761 L141.690406,147.602761 L141.690406,113.174868 Z" id="Shape"></path>
            <path d="M195.400234,130.735286 C195.644006,135.294642 194.096181,139.764893 191.099989,143.154767 C188.103797,146.544641 183.906853,148.573986 179.439826,148.792798 C175.681046,148.977038 172.035571,147.450985 169.485309,144.625679 L169.485309,161.565184 L159.530792,161.565184 L159.530792,113.660265 L169.485309,113.660265 L169.485309,116.878771 C172.035571,114.053465 175.681046,112.527412 179.439826,112.711653 C183.900786,112.93065 188.092468,114.955282 191.087702,118.337713 C194.082935,121.720145 195.634872,126.181618 195.400234,130.735286 Z M185.445718,130.735286 C185.33568,126.299615 181.763052,122.773041 177.417436,122.810494 C173.071821,122.847948 169.55801,126.435598 169.521327,130.872533 C169.484645,135.309468 172.938637,138.957172 177.283014,139.069522 C179.481939,139.212228 181.63397,138.377639 183.18561,136.780406 C184.737251,135.183173 185.537069,132.97918 185.379354,130.735286 L185.445718,130.735286 Z" id="Shape"></path>
            <path d="M227.331378,137.392892 C227.331378,145.207233 220.551787,148.5418 213.094237,148.5418 C206.999428,149.077957 201.188888,145.877805 198.416422,140.458 L207.297687,135.439307 C208.04059,137.96378 210.453778,139.63246 213.094237,139.447524 C215.568788,139.447524 216.789114,138.672827 216.789114,137.325527 C216.789114,133.586769 199.840136,135.574037 199.840136,123.852525 C199.840136,116.442375 206.145156,112.703617 213.399319,112.703617 C218.850531,112.538998 223.963055,115.323989 226.755113,119.979037 L217.839951,124.627223 C217.035313,122.809815 215.228022,121.63462 213.229829,121.62948 C211.467135,121.62948 210.382401,122.30313 210.382401,123.549383 C210.517992,127.422871 227.331378,124.829318 227.331378,137.392892 Z" id="Path"></path>
            <path d="M264.222874,113.694018 L264.222874,147.598211 L253.993892,147.598211 L253.993892,144.436511 C251.580195,147.286045 247.929828,148.823955 244.174069,148.57363 C237.354748,148.57363 231.319648,143.696538 231.319648,134.514153 L231.319648,113.694018 L241.54863,113.694018 L241.54863,133.034208 C241.366477,134.703288 241.955275,136.364637 243.151969,137.558179 C244.348664,138.75172 246.026236,139.35077 247.720116,139.189433 C251.470743,139.189433 254.096182,137.036786 254.096182,132.226965 L254.096182,113.694018 L264.222874,113.694018 Z" id="Path"></path>
            <path d="M324.046921,126.800189 L324.046921,147.602761 L313.910621,147.602761 L313.910621,127.675378 C313.910621,124.309266 312.255025,122.087632 309.011409,122.087632 C305.767793,122.087632 303.672957,124.477572 303.672957,128.483245 L303.672957,147.602761 L293.536657,147.602761 L293.536657,127.675378 C293.536657,124.309266 291.914849,122.087632 288.637445,122.087632 C285.360041,122.087632 283.332781,124.477572 283.332781,128.483245 L283.332781,147.602761 L273.196481,147.602761 L273.196481,113.672352 L283.332781,113.672352 L283.332781,116.802836 C285.485191,113.993767 288.918459,112.460917 292.455452,112.729841 C296.011636,112.55789 299.397642,114.257329 301.375396,117.20677 C303.673856,114.125204 307.39916,112.43476 311.241395,112.729841 C318.944983,112.729841 324.046921,118.317587 324.046921,126.800189 Z" id="Path"></path>
            <ellipse id="Oval" cx="332.521994" cy="105.216833" rx="7.47800587" ry="7.47986963"></ellipse>
            <ellipse id="Oval" cx="115.16129" cy="36.4020322" rx="35.3958944" ry="35.4047163"></ellipse>
            <ellipse id="Oval" cx="194.926686" cy="36.4020322" rx="35.3958944" ry="35.4047163"></ellipse>
            <rect id="Rectangle" x="0.997067449" y="0" width="70.7917889" height="70.8094325"></rect>
        </g>
    </g>
</svg>